<?xml version="1.0" encoding="iso-8859-1"?>
<!-- Generator: Adobe Illustrator 19.0.0, SVG Export Plug-In . SVG Version: 6.00 Build 0)  -->
<svg version="1.1" id="Layer_1" xmlns="http://www.w3.org/2000/svg" xmlns:xlink="http://www.w3.org/1999/xlink" x="0px" y="0px"
	 viewBox="0 0 431.055 431.055" style="enable-background:new 0 0 431.055 431.055;" xml:space="preserve">
<g>
	<path style="fill:#D83935;" d="M347.227,341.665v89.39h-263.4v-89.39c0-18.58,6.24-35.69,16.74-49.37
		c11.9-15.49,218.02-15.49,229.92,0C340.987,305.975,347.227,323.085,347.227,341.665z"/>
	<path style="fill:#E6E6E6;" d="M330.49,292.297c-11.9,15.5-29.27,26.57-49.21,30.34c-4.91,0.93-9.99,1.42-15.17,1.42H164.95
		c-5.18,0-10.26-0.49-15.17-1.42c-19.94-3.77-37.31-14.84-49.21-30.34c11.9-15.49,29.27-26.56,49.21-30.33
		c4.6-0.87,9.34-1.36,14.18-1.41c0.33-0.01,0.66-0.01,0.99-0.01h101.16c0.33,0,0.65,0,0.98,0.01c4.84,0.05,9.59,0.54,14.19,1.41
		C301.22,265.737,318.59,276.807,330.49,292.297z"/>
	<rect x="83.829" y="379.875" style="fill:#E6E6E6;" width="60.081" height="51.18"/>
	<rect x="287.144" y="379.875" style="fill:#E6E6E6;" width="60.081" height="51.18"/>
	<path style="fill:#D83935;" d="M267.09,260.557v7.09c0,13.78-5.36,26.73-15.1,36.46c-9.74,9.73-22.69,15.1-36.47,15.1
		c-28.43,0-51.56-23.13-51.56-51.56v-7.09c0.33-0.01,0.66-0.01,0.99-0.01h101.16C266.44,260.547,266.76,260.547,267.09,260.557z"/>
	<path style="fill:#FFD3AE;" d="M259.092,237.875v29.77c0,12.02-4.87,22.92-12.76,30.8c-7.88,7.88-18.78,12.76-30.81,12.76
		c-24.06,0-43.56-19.5-43.56-43.56v-29.77L259.092,237.875L259.092,237.875z"/>
	<g>
		<g>
			<circle style="fill:#E5B591;" cx="134.953" cy="147.055" r="27.89"/>
			<circle style="fill:#E5B591;" cx="296.088" cy="147.055" r="27.89"/>
		</g>
	</g>
	<path style="fill:#E5B591;" d="M259.092,243.875v24.06c-12.86,7.29-27.73,11.45-43.57,11.45s-30.7-4.16-43.56-11.45v-24.06H259.092
		z"/>
	<g>
		<path style="fill:#FFD3AE;" d="M304.017,95.555v74c0,11.95-2.37,23.34-6.66,33.74c-6.61,16.01-17.78,29.66-31.9,39.33
			c-0.19,0.14-0.39,0.27-0.58,0.4c-14.1,9.49-31.08,15.03-49.36,15.03s-35.26-5.54-49.36-15.03c-0.19-0.13-0.39-0.26-0.58-0.4
			c-23.28-15.94-38.56-42.72-38.56-73.07v-74c0-9.72,1.57-19.08,4.47-27.82c11.66-35.25,44.88-60.68,84.03-60.68
			c24.44,0,46.57,9.9,62.58,25.92c9.73,9.73,17.2,21.72,21.57,35.11C302.487,76.725,304.017,85.965,304.017,95.555z"/>
	</g>
	<path style="fill:#C42C2C;" d="M215.52,7.055c48.877,0,88.5,39.623,88.5,88.5v51.5v22.5c0,30.35-15.28,57.13-38.56,73.07
		c-0.19,0.14-0.39,0.27-0.58,0.4c-14.1,9.49-31.08,15.03-49.36,15.03s-35.26-5.54-49.36-15.03c-0.19-0.13-0.39-0.26-0.58-0.4
		c-23.28-15.94-38.56-42.72-38.56-73.07v-22.5v-51.5C127.02,46.677,166.643,7.055,215.52,7.055L215.52,7.055 M215.52,2.055
		c-51.556,0-93.5,41.944-93.5,93.5v51.5v22.5c0,30.848,15.204,59.685,40.674,77.154c0.167,0.12,0.337,0.237,0.506,0.351l0.136,0.092
		c15.469,10.411,33.502,15.903,52.183,15.903s36.714-5.492,52.152-15.882l0.17-0.115c0.168-0.113,0.338-0.229,0.504-0.349
		c25.471-17.469,40.675-46.306,40.675-77.154v-22.5v-51.5C309.02,43.999,267.076,2.055,215.52,2.055L215.52,2.055z"/>
	<path style="fill:#D83935;" d="M252.04,1.181c-3.304-1.383-6.973-1.532-10.416-0.546c-8.292,2.375-17.048,3.65-26.104,3.65l0,0
		c-9.055,0-17.812-1.275-26.104-3.65c-3.443-0.986-7.112-0.836-10.416,0.546c-34.158,14.294-58.16,48.028-58.16,87.373H310.2
		C310.2,49.21,286.199,15.475,252.04,1.181z"/>
	<g>
		<path style="fill:#E5B591;" d="M168.39,146.388h35.044c6.522,0,11.81,5.287,11.81,11.81v21.123c0,5.092,4.128,9.22,9.22,9.22
			h6.748l-2.943,1.044c-7.666,2.72-16.214,0.773-21.946-4.999L168.39,146.388z"/>
	</g>
	<g>
		<path style="fill:#333333;" d="M181.517,167.491c-1.58,0-3.13-0.64-4.24-1.75c-1.12-1.12-1.76-2.67-1.76-4.25s0.64-3.12,1.76-4.24
			c1.39-1.39,3.46-2.03,5.41-1.64c0.39,0.08,0.76,0.19,1.13,0.34c0.36,0.15,0.71,0.34,1.03,0.55c0.33,0.22,0.64,0.47,0.91,0.75
			c0.28,0.28,0.53,0.58,0.75,0.91s0.4,0.68,0.55,1.04c0.15,0.36,0.27,0.74,0.34,1.12c0.08,0.39,0.12,0.78,0.12,1.17
			s-0.04,0.79-0.12,1.18c-0.07,0.38-0.19,0.76-0.34,1.12s-0.33,0.71-0.55,1.03c-0.22,0.33-0.47,0.64-0.75,0.92
			C184.647,166.851,183.097,167.491,181.517,167.491z"/>
		<path style="fill:#333333;" d="M249.517,167.491c-0.39,0-0.79-0.04-1.17-0.11c-0.38-0.08-0.76-0.2-1.12-0.35
			c-0.37-0.15-0.71-0.33-1.04-0.55c-0.33-0.22-0.64-0.47-0.91-0.74c-0.28-0.28-0.53-0.59-0.75-0.92c-0.22-0.32-0.4-0.67-0.55-1.03
			c-0.15-0.36-0.27-0.74-0.34-1.12c-0.08-0.39-0.12-0.79-0.12-1.18s0.04-0.78,0.12-1.17c0.07-0.38,0.19-0.76,0.34-1.12
			s0.33-0.71,0.55-1.04c0.22-0.33,0.47-0.63,0.75-0.91c0.27-0.28,0.58-0.53,0.91-0.75c0.33-0.21,0.67-0.4,1.04-0.55
			c0.36-0.15,0.74-0.26,1.12-0.34c1.95-0.39,4.02,0.25,5.41,1.64c0.28,0.28,0.53,0.58,0.75,0.91s0.4,0.68,0.55,1.04
			c0.15,0.36,0.27,0.74,0.34,1.12c0.08,0.39,0.12,0.78,0.12,1.17s-0.04,0.79-0.12,1.18c-0.07,0.38-0.19,0.76-0.34,1.12
			s-0.33,0.71-0.55,1.03c-0.22,0.33-0.47,0.64-0.75,0.92C252.647,166.851,251.097,167.491,249.517,167.491z"/>
	</g>
	<g>
		<path style="fill:#4D4D4D;" d="M192.455,149.388H170.58c-3.087,0-5.59-2.503-5.59-5.59l0,0c0-3.087,2.503-5.59,5.59-5.59h21.875
			c3.087,0,5.59,2.503,5.59,5.59l0,0C198.044,146.885,195.542,149.388,192.455,149.388z"/>
		<path style="fill:#4D4D4D;" d="M260.454,149.388h-21.875c-3.087,0-5.59-2.503-5.59-5.59l0,0c0-3.087,2.503-5.59,5.59-5.59h21.875
			c3.087,0,5.59,2.503,5.59,5.59l0,0C266.044,146.885,263.542,149.388,260.454,149.388z"/>
	</g>
	<path style="fill:#FFFFFF;" d="M240.752,201.051c0,2.98-0.52,5.83-1.48,8.49c-0.45,1.28-1.01,2.51-1.65,3.68
		c-4.3,7.78-12.58,13.05-22.1,13.05c-9.53,0-17.81-5.27-22.11-13.05c-0.65-1.17-1.21-2.4-1.66-3.68c-0.96-2.66-1.47-5.51-1.47-8.49
		H240.752z"/>
	<path style="fill:#333333;" d="M239.272,209.541c-0.45,1.28-1.01,2.51-1.65,3.68c-4.3,7.78-12.58,13.05-22.1,13.05
		c-9.53,0-17.81-5.27-22.11-13.05c-0.65-1.17-1.21-2.4-1.66-3.68H239.272z"/>
	<path style="fill:#E5B591;" d="M304.017,95.555v74c0,11.95-2.37,23.34-6.66,33.74v-63.72c0-6.54-5.3-11.84-11.84-11.84h-153.33
		c-1.85,0-3.61,0.43-5.17,1.2v-33.38c0-9.72,1.57-19.08,4.47-27.82h165.18c1.03,0,2.04,0.12,3,0.35
		C302.487,76.725,304.017,85.965,304.017,95.555z"/>
	<path style="fill:#D83935;" d="M303.334,57.875H127.707c-7.154,0-12.953,5.799-12.953,12.953v38.887v63.831
		c0,6.775,5.492,12.267,12.267,12.267l0,0v-56.102c0-6.537,5.299-11.835,11.835-11.835h153.329c6.537,0,11.835,5.299,11.835,11.835
		v56.102c6.775,0,12.267-5.492,12.267-12.267v-63.831V70.828C316.287,63.674,310.488,57.875,303.334,57.875z"/>
	<rect x="114.754" y="78.375" style="fill:#C42C2C;" width="24.033" height="11"/>
	<rect x="114.754" y="98.359" style="fill:#C42C2C;" width="24.033" height="11"/>
	<g>
		<rect x="292.254" y="78.375" style="fill:#C42C2C;" width="24.033" height="11"/>
		<rect x="292.254" y="98.359" style="fill:#C42C2C;" width="24.033" height="11"/>
	</g>
	<rect x="205.287" y="201.051" style="fill:#333333;" width="8" height="9.49"/>
	<g>
		<circle style="fill:#E6E6E6;" cx="171.52" cy="90.375" r="5"/>
		<circle style="fill:#E6E6E6;" cx="259.52" cy="90.375" r="5"/>
	</g>
	<g>
		<path style="fill:#C42C2C;" d="M166.645,34.375L166.645,34.375c-5.247,0-9.5,4.253-9.5,9.5v10h9.5V34.375z"/>
		<path style="fill:#C42C2C;" d="M264.395,34.375L264.395,34.375v19.5h9.5v-10C273.895,38.628,269.642,34.375,264.395,34.375z"/>
	</g>
	<path style="opacity:0.26;fill:#29ABE2;enable-background:new    ;" d="M304.007,129.415v56.4h-176.99v-56.1
		c0-6.54,5.3-11.84,11.84-11.84h153.33C298.627,117.875,303.867,123.015,304.007,129.415z"/>
	<path style="opacity:0.26;fill:#FFFFFF;enable-background:new    ;" d="M304.007,129.415v56.4h-98.33l39.23-67.94h47.28
		C298.627,117.875,303.867,123.015,304.007,129.415z"/>
</g>
<g>
</g>
<g>
</g>
<g>
</g>
<g>
</g>
<g>
</g>
<g>
</g>
<g>
</g>
<g>
</g>
<g>
</g>
<g>
</g>
<g>
</g>
<g>
</g>
<g>
</g>
<g>
</g>
<g>
</g>
</svg>
